<mxfile host="Electron" agent="Mozilla/5.0 (Windows NT 10.0; Win64; x64) AppleWebKit/537.36 (KHTML, like Gecko) draw.io/26.2.2 Chrome/134.0.6998.178 Electron/35.1.2 Safari/537.36" version="26.2.2">
  <diagram name="Page-1" id="13e1069c-82ec-6db2-03f1-153e76fe0fe0">
    <mxGraphModel dx="788" dy="524" grid="1" gridSize="10" guides="1" tooltips="1" connect="1" arrows="1" fold="1" page="1" pageScale="1" pageWidth="1100" pageHeight="850" background="none" math="0" shadow="0">
      <root>
        <mxCell id="0" />
        <mxCell id="1" parent="0" />
        <mxCell id="ktKVlOXxkwxn3kh6iSlA-59" value="&lt;font style=&quot;font-size: 10px;&quot;&gt;3:UpdateJobDescription(criteria)&lt;/font&gt;" style="html=1;verticalAlign=bottom;endArrow=block;curved=0;rounded=0;entryX=0;entryY=0;entryDx=0;entryDy=5;" parent="1" source="ktKVlOXxkwxn3kh6iSlA-9" target="ktKVlOXxkwxn3kh6iSlA-58" edge="1">
          <mxGeometry x="0.12" y="5" relative="1" as="geometry">
            <mxPoint x="290" y="805" as="sourcePoint" />
            <Array as="points" />
            <mxPoint as="offset" />
          </mxGeometry>
        </mxCell>
        <mxCell id="ktKVlOXxkwxn3kh6iSlA-31" value="System" style="shape=umlLifeline;perimeter=lifelinePerimeter;whiteSpace=wrap;html=1;container=1;dropTarget=0;collapsible=0;recursiveResize=0;outlineConnect=0;portConstraint=eastwest;newEdgeStyle={&quot;curved&quot;:0,&quot;rounded&quot;:0};size=30;" parent="1" vertex="1">
          <mxGeometry x="245" y="270" width="100" height="550" as="geometry" />
        </mxCell>
        <mxCell id="ktKVlOXxkwxn3kh6iSlA-58" value="" style="html=1;points=[[0,0,0,0,5],[0,1,0,0,-5],[1,0,0,0,5],[1,1,0,0,-5]];perimeter=orthogonalPerimeter;outlineConnect=0;targetShapes=umlLifeline;portConstraint=eastwest;newEdgeStyle={&quot;curved&quot;:0,&quot;rounded&quot;:0};" parent="ktKVlOXxkwxn3kh6iSlA-31" vertex="1">
          <mxGeometry x="40" y="380" width="10" height="120" as="geometry" />
        </mxCell>
        <mxCell id="7baba1c4bc27f4b0-46" value="Note" style="shape=note;whiteSpace=wrap;html=1;size=14;verticalAlign=top;align=left;spacingTop=-6;rounded=0;shadow=0;comic=0;labelBackgroundColor=none;strokeWidth=1;fontFamily=Verdana;fontSize=12" parent="1" vertex="1">
          <mxGeometry x="960" y="30" width="100" height="35" as="geometry" />
        </mxCell>
        <mxCell id="ktKVlOXxkwxn3kh6iSlA-1" value="Client" style="shape=umlActor;verticalLabelPosition=bottom;verticalAlign=top;html=1;outlineConnect=0;" parent="1" vertex="1">
          <mxGeometry x="150" y="250" width="20" height="40" as="geometry" />
        </mxCell>
        <mxCell id="ktKVlOXxkwxn3kh6iSlA-4" value="alt" style="shape=umlFrame;whiteSpace=wrap;html=1;pointerEvents=0;" parent="1" vertex="1">
          <mxGeometry x="70" y="380" width="710" height="120" as="geometry" />
        </mxCell>
        <mxCell id="ktKVlOXxkwxn3kh6iSlA-5" value="" style="endArrow=block;endFill=1;html=1;edgeStyle=orthogonalEdgeStyle;align=left;verticalAlign=top;rounded=0;" parent="1" edge="1">
          <mxGeometry x="-1" relative="1" as="geometry">
            <mxPoint x="130" y="330" as="sourcePoint" />
            <mxPoint x="290" y="330" as="targetPoint" />
          </mxGeometry>
        </mxCell>
        <mxCell id="ktKVlOXxkwxn3kh6iSlA-6" value="1" style="edgeLabel;resizable=0;html=1;align=left;verticalAlign=bottom;" parent="ktKVlOXxkwxn3kh6iSlA-5" connectable="0" vertex="1">
          <mxGeometry x="-1" relative="1" as="geometry" />
        </mxCell>
        <mxCell id="ktKVlOXxkwxn3kh6iSlA-7" value="" style="endArrow=none;html=1;rounded=0;" parent="1" edge="1">
          <mxGeometry width="50" height="50" relative="1" as="geometry">
            <mxPoint x="159.5" y="320" as="sourcePoint" />
            <mxPoint x="159.5" y="310" as="targetPoint" />
          </mxGeometry>
        </mxCell>
        <mxCell id="ktKVlOXxkwxn3kh6iSlA-8" value="&lt;font style=&quot;font-size: 9px;&quot;&gt;fill(job description,person specification)&lt;/font&gt;" style="text;html=1;align=center;verticalAlign=middle;resizable=0;points=[];autosize=1;strokeColor=none;fillColor=none;fontSize=10;" parent="1" vertex="1">
          <mxGeometry x="130" y="308" width="180" height="30" as="geometry" />
        </mxCell>
        <mxCell id="ktKVlOXxkwxn3kh6iSlA-10" value="" style="html=1;points=[[0,0,0,0,5],[0,1,0,0,-5],[1,0,0,0,5],[1,1,0,0,-5]];perimeter=orthogonalPerimeter;outlineConnect=0;targetShapes=umlLifeline;portConstraint=eastwest;newEdgeStyle={&quot;curved&quot;:0,&quot;rounded&quot;:0};" parent="1" vertex="1">
          <mxGeometry x="290" y="330" width="10" height="150" as="geometry" />
        </mxCell>
        <mxCell id="ktKVlOXxkwxn3kh6iSlA-11" value="&lt;font style=&quot;font-size: 10px;&quot;&gt;return confirmation message&lt;/font&gt;" style="html=1;verticalAlign=bottom;endArrow=open;dashed=1;endSize=8;curved=0;rounded=0;" parent="1" target="ktKVlOXxkwxn3kh6iSlA-9" edge="1">
          <mxGeometry relative="1" as="geometry">
            <mxPoint x="290" y="480" as="sourcePoint" />
            <mxPoint x="210" y="480" as="targetPoint" />
          </mxGeometry>
        </mxCell>
        <mxCell id="ktKVlOXxkwxn3kh6iSlA-12" value="&lt;font style=&quot;font-size: 10px;&quot;&gt;[if all the inputs are valid]&lt;/font&gt;" style="text;html=1;align=center;verticalAlign=middle;resizable=0;points=[];autosize=1;strokeColor=none;fillColor=none;" parent="1" vertex="1">
          <mxGeometry x="155" y="390" width="130" height="30" as="geometry" />
        </mxCell>
        <mxCell id="ktKVlOXxkwxn3kh6iSlA-18" value="" style="html=1;points=[[0,0,0,0,5],[0,1,0,0,-5],[1,0,0,0,5],[1,1,0,0,-5]];perimeter=orthogonalPerimeter;outlineConnect=0;targetShapes=umlLifeline;portConstraint=eastwest;newEdgeStyle={&quot;curved&quot;:0,&quot;rounded&quot;:0};" parent="1" vertex="1">
          <mxGeometry x="300" y="358" width="10" height="20" as="geometry" />
        </mxCell>
        <mxCell id="ktKVlOXxkwxn3kh6iSlA-19" value="1.1validate()" style="html=1;align=left;spacingLeft=2;endArrow=block;rounded=0;edgeStyle=orthogonalEdgeStyle;curved=0;rounded=0;exitX=1;exitY=0.053;exitDx=0;exitDy=0;exitPerimeter=0;" parent="1" source="ktKVlOXxkwxn3kh6iSlA-10" target="ktKVlOXxkwxn3kh6iSlA-18" edge="1">
          <mxGeometry x="-0.7144" y="8" relative="1" as="geometry">
            <mxPoint x="305" y="338" as="sourcePoint" />
            <Array as="points">
              <mxPoint x="360" y="338" />
              <mxPoint x="360" y="368" />
            </Array>
            <mxPoint as="offset" />
          </mxGeometry>
        </mxCell>
        <mxCell id="ktKVlOXxkwxn3kh6iSlA-20" value="&lt;font style=&quot;font-size: 10px;&quot;&gt;&amp;lt;&amp;lt;create&amp;gt;&amp;gt;&lt;/font&gt;" style="text;html=1;align=center;verticalAlign=middle;resizable=0;points=[];autosize=1;strokeColor=none;fillColor=none;" parent="1" vertex="1">
          <mxGeometry x="370" y="380" width="70" height="30" as="geometry" />
        </mxCell>
        <mxCell id="ktKVlOXxkwxn3kh6iSlA-23" value="1.2insertJob(JobDescription) :void" style="html=1;verticalAlign=bottom;labelBackgroundColor=none;endArrow=open;endFill=0;dashed=1;rounded=0;" parent="1" edge="1">
          <mxGeometry width="160" relative="1" as="geometry">
            <mxPoint x="300" y="430" as="sourcePoint" />
            <mxPoint x="520" y="430" as="targetPoint" />
          </mxGeometry>
        </mxCell>
        <mxCell id="ktKVlOXxkwxn3kh6iSlA-24" value="&lt;font style=&quot;font-size: 10px;&quot;&gt;newJobPost: Job Post&lt;/font&gt;" style="html=1;whiteSpace=wrap;" parent="1" vertex="1">
          <mxGeometry x="520" y="420" width="120" height="20" as="geometry" />
        </mxCell>
        <mxCell id="ktKVlOXxkwxn3kh6iSlA-25" value="alt" style="shape=umlFrame;whiteSpace=wrap;html=1;pointerEvents=0;" parent="1" vertex="1">
          <mxGeometry x="80" y="510" width="440" height="80" as="geometry" />
        </mxCell>
        <mxCell id="ktKVlOXxkwxn3kh6iSlA-9" value="" style="html=1;points=[[0,0,0,0,5],[0,1,0,0,-5],[1,0,0,0,5],[1,1,0,0,-5]];perimeter=orthogonalPerimeter;outlineConnect=0;targetShapes=umlLifeline;portConstraint=eastwest;newEdgeStyle={&quot;curved&quot;:0,&quot;rounded&quot;:0};" parent="1" vertex="1">
          <mxGeometry x="150" y="330" width="10" height="480" as="geometry" />
        </mxCell>
        <mxCell id="ktKVlOXxkwxn3kh6iSlA-26" value="&lt;font style=&quot;font-size: 10px;&quot;&gt;[if all the inputs are not valid]&lt;/font&gt;" style="text;html=1;align=center;verticalAlign=middle;resizable=0;points=[];autosize=1;strokeColor=none;fillColor=none;" parent="1" vertex="1">
          <mxGeometry x="150" y="510" width="150" height="30" as="geometry" />
        </mxCell>
        <mxCell id="ktKVlOXxkwxn3kh6iSlA-29" value="2:display error message()" style="html=1;verticalAlign=bottom;labelBackgroundColor=none;endArrow=open;endFill=0;rounded=0;" parent="1" edge="1">
          <mxGeometry width="160" relative="1" as="geometry">
            <mxPoint x="300" y="560" as="sourcePoint" />
            <mxPoint x="160" y="560" as="targetPoint" />
          </mxGeometry>
        </mxCell>
        <mxCell id="ktKVlOXxkwxn3kh6iSlA-32" value="" style="fontStyle=0;labelPosition=right;verticalLabelPosition=middle;align=left;verticalAlign=middle;spacingLeft=2;" parent="1" vertex="1">
          <mxGeometry x="290" y="560" width="10" height="20" as="geometry" />
        </mxCell>
        <mxCell id="ktKVlOXxkwxn3kh6iSlA-39" value="" style="shape=umlLifeline;perimeter=lifelinePerimeter;whiteSpace=wrap;html=1;container=1;dropTarget=0;collapsible=0;recursiveResize=0;outlineConnect=0;portConstraint=eastwest;newEdgeStyle={&quot;curved&quot;:0,&quot;rounded&quot;:0};size=30;" parent="1" vertex="1">
          <mxGeometry x="575" y="440" width="10" height="380" as="geometry" />
        </mxCell>
        <mxCell id="ktKVlOXxkwxn3kh6iSlA-40" value="alt" style="shape=umlFrame;whiteSpace=wrap;html=1;pointerEvents=0;" parent="1" vertex="1">
          <mxGeometry x="80" y="600" width="630" height="190" as="geometry" />
        </mxCell>
        <mxCell id="ktKVlOXxkwxn3kh6iSlA-49" value="&lt;font style=&quot;font-size: 10px;&quot;&gt;[if the recruitment wants to update job description]&lt;/font&gt;" style="text;html=1;align=center;verticalAlign=middle;resizable=0;points=[];autosize=1;strokeColor=none;fillColor=none;" parent="1" vertex="1">
          <mxGeometry x="150" y="600" width="240" height="30" as="geometry" />
        </mxCell>
        <mxCell id="ktKVlOXxkwxn3kh6iSlA-60" value="&lt;font style=&quot;font-size: 10px;&quot;&gt;return confirmation message&lt;/font&gt;" style="html=1;verticalAlign=bottom;endArrow=open;dashed=1;endSize=8;curved=0;rounded=0;exitX=0;exitY=1;exitDx=0;exitDy=-5;" parent="1" edge="1">
          <mxGeometry x="0.04" y="-5" relative="1" as="geometry">
            <mxPoint x="160" y="770" as="targetPoint" />
            <mxPoint x="285" y="770" as="sourcePoint" />
            <mxPoint as="offset" />
          </mxGeometry>
        </mxCell>
        <mxCell id="ktKVlOXxkwxn3kh6iSlA-64" value="" style="html=1;points=[[0,0,0,0,5],[0,1,0,0,-5],[1,0,0,0,5],[1,1,0,0,-5]];perimeter=orthogonalPerimeter;outlineConnect=0;targetShapes=umlLifeline;portConstraint=eastwest;newEdgeStyle={&quot;curved&quot;:0,&quot;rounded&quot;:0};" parent="1" vertex="1">
          <mxGeometry x="575" y="670" width="10" height="30" as="geometry" />
        </mxCell>
        <mxCell id="ktKVlOXxkwxn3kh6iSlA-65" value="3.1:getJoblist()" style="html=1;verticalAlign=bottom;endArrow=block;curved=0;rounded=0;entryX=0;entryY=0;entryDx=0;entryDy=5;" parent="1" target="ktKVlOXxkwxn3kh6iSlA-64" edge="1">
          <mxGeometry relative="1" as="geometry">
            <mxPoint x="295" y="675" as="sourcePoint" />
          </mxGeometry>
        </mxCell>
        <mxCell id="ktKVlOXxkwxn3kh6iSlA-66" value="return job description" style="html=1;verticalAlign=bottom;endArrow=open;dashed=1;endSize=8;curved=0;rounded=0;entryX=0.527;entryY=0.785;entryDx=0;entryDy=0;entryPerimeter=0;" parent="1" source="ktKVlOXxkwxn3kh6iSlA-64" target="ktKVlOXxkwxn3kh6iSlA-31" edge="1">
          <mxGeometry relative="1" as="geometry">
            <mxPoint x="440" y="730" as="targetPoint" />
          </mxGeometry>
        </mxCell>
        <mxCell id="ktKVlOXxkwxn3kh6iSlA-67" value="" style="html=1;points=[[0,0,0,0,5],[0,1,0,0,-5],[1,0,0,0,5],[1,1,0,0,-5]];perimeter=orthogonalPerimeter;outlineConnect=0;targetShapes=umlLifeline;portConstraint=eastwest;newEdgeStyle={&quot;curved&quot;:0,&quot;rounded&quot;:0};" parent="1" vertex="1">
          <mxGeometry x="575" y="730" width="10" height="30" as="geometry" />
        </mxCell>
        <mxCell id="ktKVlOXxkwxn3kh6iSlA-68" value="3.2:updateJoblist()" style="html=1;verticalAlign=bottom;endArrow=block;curved=0;rounded=0;entryX=0;entryY=0;entryDx=0;entryDy=5;" parent="1" source="ktKVlOXxkwxn3kh6iSlA-31" target="ktKVlOXxkwxn3kh6iSlA-67" edge="1">
          <mxGeometry relative="1" as="geometry">
            <mxPoint x="320" y="885" as="sourcePoint" />
          </mxGeometry>
        </mxCell>
        <mxCell id="ktKVlOXxkwxn3kh6iSlA-69" value="return updated job list" style="html=1;verticalAlign=bottom;endArrow=open;dashed=1;endSize=8;curved=0;rounded=0;exitX=0;exitY=1;exitDx=0;exitDy=-5;" parent="1" source="ktKVlOXxkwxn3kh6iSlA-67" target="ktKVlOXxkwxn3kh6iSlA-31" edge="1">
          <mxGeometry relative="1" as="geometry">
            <mxPoint x="310" y="905" as="targetPoint" />
          </mxGeometry>
        </mxCell>
        <mxCell id="ktKVlOXxkwxn3kh6iSlA-70" value="&lt;font style=&quot;font-size: 8px;&quot;&gt;&lt;b style=&quot;&quot;&gt;Sequence Diagram for job description&lt;/b&gt;&lt;/font&gt;" style="shape=umlFrame;whiteSpace=wrap;html=1;pointerEvents=0;recursiveResize=0;container=1;collapsible=0;width=160;" parent="1" vertex="1">
          <mxGeometry x="40" y="220" width="790" height="650" as="geometry" />
        </mxCell>
        <mxCell id="ktKVlOXxkwxn3kh6iSlA-74" value="" style="line;strokeWidth=1;direction=south;html=1;dashed=1;dashPattern=20 20;" parent="ktKVlOXxkwxn3kh6iSlA-70" vertex="1">
          <mxGeometry x="110" y="590" width="10" height="20" as="geometry" />
        </mxCell>
      </root>
    </mxGraphModel>
  </diagram>
</mxfile>
